<svg width="512" height="512" viewBox="0 0 512 512" fill="none" xmlns="http://www.w3.org/2000/svg">
<path d="M49.3253 276.104L49.3249 276.105C28.7299 297.905 17.3928 326.778 17.3928 357.398C17.3928 420.783 66.1488 472.53 126.292 472.53H385.714C414.682 472.53 442.015 460.497 462.674 438.703L462.676 438.701C483.271 416.906 494.607 388.024 494.607 357.404C494.607 304.243 459.526 258.287 411.908 245.699C413.849 238.695 414.851 231.378 414.851 223.966C414.851 195.47 400.068 169.465 376.589 155.886C367.622 116.772 339.996 75.3657 303.191 46.1898L303.187 46.1866C293.167 38.2886 280.019 37.2842 268.944 43.5558L268.943 43.556C257.761 49.8903 251.269 62.103 251.922 75.3894L251.922 75.3937C253.205 100.285 250.333 116.221 245.302 126.829C240.391 137.188 233.344 142.627 225.677 146.386H170.559C150.951 146.386 132.498 154.508 118.61 169.204L118.61 169.204C104.732 183.897 97.0941 203.355 97.0941 223.966C97.0941 231.342 98.101 238.657 100.057 245.68C81.0209 250.692 63.437 261.177 49.3253 276.104Z" fill="#ECE9E1" stroke="#ECE9E1" stroke-width="3.65714"/>
<path d="M385.714 470.701H126.292C67.2548 470.701 19.2214 419.872 19.2214 357.398C19.2214 327.233 30.3874 298.813 50.6541 277.361C64.988 262.198 82.9489 251.709 102.343 246.988C100.087 239.578 98.9227 231.808 98.9227 223.966C98.9227 203.811 106.389 184.805 119.939 170.46C133.495 156.115 151.473 148.214 170.559 148.214H226.098C242.268 140.42 256.328 125.376 253.748 75.2996C253.127 62.6666 259.295 51.1231 269.845 45.147C280.272 39.242 292.617 40.1837 302.055 47.6227C338.837 76.7803 366.315 118.204 374.983 157.075C398.273 170.2 413.022 195.815 413.022 223.966C413.022 231.849 411.863 239.62 409.625 247.005C457.316 258.668 492.779 304.351 492.779 357.404C492.779 387.569 481.614 415.998 461.347 437.445C441.018 458.891 414.158 470.701 385.714 470.701ZM170.564 171.899C157.456 171.899 145.104 177.337 135.773 187.204C126.449 197.077 121.311 210.131 121.311 223.96C121.311 233.2 123.673 242.291 128.139 250.252L137.318 266.605L119.402 268.109C99.5496 269.773 80.7605 279.013 66.4882 294.11C50.4469 311.091 41.615 333.565 41.615 357.398C41.615 406.812 79.6075 447.01 126.298 447.01H385.72C408.195 447.01 429.443 437.658 445.539 420.677C461.57 403.714 470.401 381.237 470.401 357.398C470.401 311.067 436.205 271.846 392.542 268.109L374.57 266.569L383.85 250.205C388.3 242.356 390.651 233.283 390.651 223.96C390.651 203.16 378.913 184.367 360.751 176.087L355.254 173.581L354.175 167.351C348.108 132.418 323.011 93.8083 288.678 66.599C285.18 63.8512 281.744 65.2783 280.427 66.0305C279.36 66.6405 275.879 69.0096 276.12 74.0321C278.822 126.555 265.457 156.465 232.78 170.981L230.705 171.905L170.564 171.899Z" fill="black"/>
<path d="M176.799 317.162C177.415 317.635 178.087 318.109 178.646 318.642C201.986 337.355 207.135 372.063 190.288 397.531C186.426 403.454 181.669 408.429 176.184 412.338C167.004 418.912 156.314 422.17 145.568 422.17C134.598 422.17 123.628 418.734 114.337 411.864C102.359 403.039 94.4113 389.831 91.8368 374.61C89.3182 359.447 92.5083 344.107 100.848 331.433C109.187 318.82 121.669 310.35 135.997 307.685C150.381 305.02 164.822 308.337 176.799 317.162Z" stroke="black" stroke-width="18.2857" stroke-linejoin="round"/>
<path d="M178.646 318.642C178.087 318.109 177.415 317.635 176.799 317.162C164.822 308.337 150.381 305.02 135.997 307.685C121.669 310.35 109.187 318.82 100.848 331.433C92.5083 344.107 89.3182 359.447 91.8368 374.61C94.4113 389.831 102.359 403.039 114.337 411.864C123.628 418.734 134.598 422.17 145.568 422.17C156.314 422.17 167.004 418.912 176.184 412.338C181.669 408.429 186.426 403.454 190.288 397.531C207.135 372.063 201.986 337.355 178.646 318.642ZM172.601 321.367C161.407 323.084 150.941 329.419 144.001 339.902C130.68 360.099 135.381 387.936 154.467 402.032C159.393 405.645 164.822 408.073 170.363 409.199C171.762 409.495 173.217 409.732 174.616 409.85C157.378 422.229 134.038 422.821 115.904 409.436C92.5083 392.141 86.7434 357.967 103.143 333.15C119.486 308.396 151.781 302.295 175.176 319.59C175.736 320.005 176.352 320.478 176.911 320.952C175.456 321.011 174.001 321.189 172.601 321.367Z" fill="black"/>
<path d="M316.053 318.642C315.494 318.109 314.822 317.635 314.207 317.162C302.284 308.337 287.787 305.02 273.459 307.685C259.131 310.35 246.65 318.82 238.255 331.433C229.914 344.107 226.725 359.447 229.299 374.61C231.817 389.831 239.822 403.039 251.745 411.864C261.203 418.853 272.116 422.347 283.031 422.347C293.666 422.347 304.299 419.031 313.591 412.338C319.076 408.429 323.832 403.454 327.749 397.531C344.541 372.063 339.393 337.355 316.053 318.642Z" stroke="black" stroke-width="18.2857"/>
<path d="M316.053 318.642C315.494 318.109 314.822 317.635 314.207 317.162C302.284 308.337 287.787 305.02 273.459 307.685C259.131 310.35 246.65 318.82 238.255 331.433C229.914 344.107 226.725 359.447 229.299 374.61C231.817 389.831 239.822 403.039 251.745 411.864C261.203 418.853 272.116 422.347 283.031 422.347C293.666 422.347 304.299 419.031 313.591 412.338C319.076 408.429 323.832 403.454 327.749 397.531C344.541 372.063 339.393 337.355 316.053 318.642ZM310.063 321.367C298.925 323.025 288.405 329.36 281.464 339.902C268.088 360.099 272.844 387.936 291.874 402.032C296.799 405.645 302.227 408.073 307.768 409.199C309.168 409.495 310.625 409.732 312.022 409.85C294.784 422.229 271.444 422.821 253.368 409.436C229.914 392.141 224.206 357.967 240.55 333.15C256.95 308.396 289.187 302.295 312.584 319.59C313.199 320.005 313.758 320.478 314.317 320.952C312.919 321.011 311.463 321.13 310.063 321.367Z" fill="black"/>
</svg>
